<?xml version="1.0" encoding="utf-8"?>
<!-- Generator: Adobe Illustrator 23.0.0, SVG Export Plug-In . SVG Version: 6.00 Build 0)  -->
<svg version="1.1" id="Laag_1" xmlns="http://www.w3.org/2000/svg" xmlns:xlink="http://www.w3.org/1999/xlink" x="0px" y="0px"
	 viewBox="0 0 283.5 283.5" style="enable-background:new 0 0 283.5 283.5;" xml:space="preserve">
<style type="text/css">
	.st0{fill:#373636;}
</style>
<polygon class="st0" points="139.1,115.4 134.1,129.8 131.2,129.8 126.2,115.4 128.9,115.4 132.7,126.4 136.4,115.4 "/>
<polygon class="st0" points="141.4,114.2 143.6,114 144,114 144,129.6 141.4,129.6 "/>
<g>
	<path class="st0" d="M155.8,129.8c-0.4,0-0.8-0.1-1.3-0.2c-0.4-0.2-0.8-0.5-1.3-0.9c-0.4,0.3-0.8,0.6-1.3,0.8
		c-0.5,0.2-1,0.3-1.7,0.3c-0.5,0-1.1-0.1-1.6-0.3c-0.6-0.2-1.1-0.5-1.4-1c-0.4-0.5-0.6-1.3-0.6-2.3c0-1,0.2-1.8,0.8-2.3
		c0.6-0.5,1.6-0.8,3.1-0.8c0.6,0,1.3,0,2.3,0.1v-0.6c0-0.8-0.2-1.3-0.6-1.6c-0.4-0.3-0.9-0.5-1.5-0.5c-0.5,0-1,0.1-1.5,0.2
		c-0.5,0.1-1,0.3-1.5,0.5l-0.6-2.2c1.2-0.6,2.7-0.9,4.1-0.9c1.1,0,2.1,0.2,2.9,0.8c0.8,0.6,1.2,1.5,1.2,2.9v4.2
		c0,0.5,0.2,0.9,0.5,1.2c0.3,0.3,0.7,0.4,1.2,0.5L155.8,129.8z M152.8,125.1c-1.2,0-2.1,0-2.7,0.1s-1,0.5-1,1.1
		c0,0.9,0.7,1.4,1.6,1.4c0.3,0,0.8-0.1,1.3-0.3c0.5-0.3,0.8-0.8,0.8-1.7V125.1z"/>
	<path class="st0" d="M167.5,129.8c-0.4,0-0.8-0.1-1.2-0.2c-0.4-0.2-0.8-0.5-1.3-0.9c-0.4,0.3-0.8,0.6-1.3,0.8
		c-0.5,0.2-1,0.3-1.7,0.3c-0.5,0-1.1-0.1-1.6-0.3c-0.6-0.2-1.1-0.5-1.4-1c-0.4-0.5-0.6-1.3-0.6-2.3c0-1,0.2-1.8,0.8-2.3
		c0.6-0.5,1.6-0.8,3.1-0.8c0.6,0,1.3,0,2.3,0.1v-0.6c0-0.8-0.2-1.3-0.6-1.6c-0.4-0.3-0.9-0.5-1.5-0.5c-0.5,0-1,0.1-1.5,0.2
		c-0.5,0.1-1,0.3-1.5,0.5l-0.6-2.2c1.2-0.6,2.7-0.9,4.1-0.9c1.1,0,2.1,0.2,2.9,0.8c0.8,0.6,1.2,1.5,1.2,2.9v4.2
		c0,0.5,0.2,0.9,0.5,1.2c0.3,0.3,0.7,0.4,1.2,0.5L167.5,129.8z M164.5,125.1c-1.2,0-2.1,0-2.7,0.1s-1,0.5-1,1.1
		c0,0.9,0.7,1.4,1.6,1.4c0.3,0,0.8-0.1,1.3-0.3c0.5-0.3,0.8-0.8,0.8-1.7V125.1z"/>
	<path class="st0" d="M170.7,118.4h2.1l0.2,0.8c0.9-0.6,1.9-1,3-1c1.1,0,2.1,0.4,2.7,1.3c1-0.9,2.2-1.3,3.4-1.3
		c0.9,0,1.8,0.3,2.5,0.9c0.6,0.6,1.1,1.6,1.1,3v7.4h-2.5v-6.7c0-0.8-0.2-1.4-0.6-1.7c-0.4-0.3-0.8-0.5-1.3-0.5
		c-0.6,0-1.3,0.2-1.9,0.6c0,0.3,0.1,0.6,0.1,0.9v7.5H177v-6.7c0-0.8-0.2-1.4-0.5-1.7c-0.3-0.3-0.8-0.5-1.3-0.5
		c-0.6,0-1.3,0.2-1.9,0.6v8.3h-2.5V118.4z"/>
	<path class="st0" d="M188,126.7L188,126.7c0.4,0.1,0.8,0.3,1.3,0.5c0.5,0.2,1,0.3,1.5,0.3c0.4,0,0.9-0.1,1.3-0.3
		c0.3-0.2,0.6-0.5,0.6-1c0-0.5-0.3-0.9-0.7-1.1c-0.2-0.1-0.5-0.2-0.8-0.3c-0.6-0.2-1.2-0.4-1.7-0.6c-0.6-0.3-1-0.7-1.3-1.3
		c-0.1-0.3-0.2-0.7-0.2-1.2c0-1.2,0.5-2,1.2-2.6c0.7-0.5,1.7-0.8,2.7-0.8c0.9,0,1.8,0.2,2.5,0.4v2.3l-0.1,0.1
		c-0.6-0.3-1.2-0.5-1.9-0.5c-0.5,0-0.9,0.1-1.2,0.2c-0.3,0.2-0.5,0.4-0.5,0.8c0,0.4,0.3,0.6,0.7,0.9c0.2,0.1,0.5,0.2,0.7,0.3
		c0.6,0.2,1.1,0.4,1.7,0.7c0.6,0.3,1,0.8,1.3,1.5c0.1,0.3,0.2,0.8,0.2,1.2c0,1.3-0.5,2.2-1.3,2.8c-0.8,0.6-1.9,0.9-3,0.9
		c-1.1,0-2.1-0.3-2.9-0.8V126.7z"/>
	<path class="st0" d="M206.1,126.7v2.4c-0.5,0.2-1,0.4-1.6,0.5c-0.6,0.1-1.1,0.2-1.6,0.2c-1.6,0-3-0.5-4-1.4c-1.1-1-1.7-2.4-1.7-4.4
		c0-1.9,0.6-3.3,1.6-4.3c0.9-1,2.2-1.5,3.5-1.5c0.4,0,1,0,1.6,0.3c0.7,0.2,1.4,0.7,1.9,1.4c0.5,0.7,0.9,1.8,0.9,3.4v1.7h-6.8
		c0.2,0.9,0.7,1.5,1.3,1.9c0.6,0.4,1.3,0.6,2,0.6C204.2,127.4,205.2,127.1,206.1,126.7L206.1,126.7z M204.4,123
		c-0.1-0.8-0.3-1.4-0.7-1.8c-0.4-0.4-0.9-0.5-1.4-0.5c-0.5,0-1,0.2-1.5,0.5c-0.4,0.4-0.8,1-0.9,1.8H204.4z"/>
	<path class="st0" d="M127.4,150.3v-14.2h4.1c0.9,0,2,0.1,2.9,0.4c0.9,0.3,1.8,0.8,2.4,1.6c0.6,0.8,1,1.8,1,3.1c0,1-0.2,1.8-0.7,2.5
		c-0.4,0.7-1,1.2-1.8,1.6c0.3,0.6,0.9,1.4,1.5,2c0.7,0.7,1.4,1.2,2.1,1.4v0.1l-1.1,1.7c-0.7,0-1.4-0.3-2.1-0.8
		c-0.7-0.5-1.3-1.1-1.8-1.8c-0.5-0.7-0.9-1.4-1.1-1.9c-0.5,0.1-0.9,0.1-1.4,0.1h-1.6v4.2H127.4z M129.9,138.5v5.1h1.6
		c1.5,0,2.4-0.2,3-0.7c0.6-0.4,0.8-1,0.8-1.8c0-0.8-0.2-1.4-0.8-1.9c-0.6-0.5-1.5-0.7-3-0.7H129.9z"/>
	<path class="st0" d="M149.6,147.4v2.4c-0.5,0.2-1,0.4-1.6,0.5c-0.6,0.1-1.1,0.2-1.6,0.2c-1.6,0-3-0.5-4-1.4c-1.1-1-1.7-2.4-1.7-4.4
		c0-1.9,0.6-3.3,1.6-4.3c0.9-1,2.2-1.5,3.5-1.5c0.4,0,1,0,1.6,0.3c0.7,0.2,1.4,0.7,1.9,1.4c0.5,0.7,0.9,1.8,0.9,3.4v1.7h-6.8
		c0.2,0.9,0.7,1.5,1.3,1.9c0.6,0.4,1.3,0.6,2,0.6C147.6,148.1,148.6,147.8,149.6,147.4L149.6,147.4z M147.8,143.6
		c-0.1-0.8-0.3-1.4-0.7-1.8c-0.4-0.4-0.9-0.5-1.4-0.5c-0.5,0-1,0.2-1.5,0.6c-0.4,0.4-0.8,1-0.9,1.8H147.8z"/>
	<path class="st0" d="M162.2,140.2l-0.1,0.2c-0.6,0.1-1.2,0.3-1.9,0.7c0.2,0.4,0.3,0.9,0.3,1.4c0,1.1-0.4,2-1.2,2.8
		c-0.7,0.7-1.8,1.2-3,1.2c-0.5,0-0.9-0.1-1.3-0.2c-0.2,0.2-0.2,0.4-0.2,0.6c0,0.5,0.5,0.8,1.3,0.8h1.3c1.5,0,2.7,0.4,3.4,1
		c0.7,0.6,1.1,1.5,1.1,2.4c0,1.2-0.7,2.3-1.8,3.1c-1.1,0.8-2.5,1.3-3.9,1.3c-1.3,0-2.3-0.4-3-1c-0.7-0.6-1.1-1.5-1.1-2.5
		c0-0.9,0.5-2,1.3-2.8c-0.3-0.2-0.5-0.5-0.7-0.8c-0.2-0.3-0.2-0.7-0.2-1c0-0.6,0.3-1.3,0.8-2c-0.3-0.3-0.5-0.7-0.7-1.2
		c-0.2-0.5-0.2-1-0.2-1.4c0-1.1,0.4-2,1.2-2.7c0.7-0.7,1.8-1.1,3-1.1c0.8,0,1.6,0.2,2.2,0.5c0.5-0.4,1-0.6,1.5-0.8
		c0.5-0.2,1-0.3,1.3-0.3L162.2,140.2z M155.3,149.9c-0.4,0.5-0.7,1-0.7,1.5c0,0.4,0.2,0.8,0.5,1.1c0.3,0.3,0.9,0.4,1.5,0.4
		c0.8,0,1.4-0.2,1.9-0.6c0.5-0.3,0.8-0.8,0.8-1.2c0-0.6-0.3-0.9-0.8-1.1c-0.5-0.2-1.2-0.2-2-0.2H155.3z M156.4,141.1
		c-0.6,0-1,0.2-1.3,0.5c-0.3,0.3-0.5,0.7-0.5,1.1c0,0.4,0.2,0.8,0.5,1.1c0.3,0.3,0.7,0.5,1.3,0.5c0.6,0,1-0.2,1.3-0.5
		c0.3-0.3,0.4-0.7,0.4-1.1c0-0.4-0.1-0.8-0.4-1.1C157.4,141.3,157,141.1,156.4,141.1"/>
	<path class="st0" d="M171.7,147.4v2.4c-0.5,0.2-1,0.4-1.6,0.5c-0.6,0.1-1.1,0.2-1.6,0.2c-1.6,0-3-0.5-4-1.4c-1.1-1-1.7-2.4-1.7-4.4
		c0-1.9,0.6-3.3,1.6-4.3c0.9-1,2.2-1.5,3.5-1.5c0.4,0,1,0,1.6,0.3c0.7,0.2,1.4,0.7,1.9,1.4c0.5,0.7,0.9,1.8,0.9,3.4v1.7h-6.8
		c0.2,0.9,0.7,1.5,1.3,1.9c0.6,0.4,1.3,0.6,2,0.6C169.7,148.1,170.7,147.8,171.7,147.4L171.7,147.4z M170,143.6
		c-0.1-0.8-0.3-1.4-0.7-1.8c-0.4-0.4-0.9-0.5-1.4-0.5c-0.5,0-1,0.2-1.5,0.6c-0.4,0.4-0.8,1-0.9,1.8H170z"/>
	<path class="st0" d="M181.4,141.9c-0.6-0.4-1.3-0.6-1.9-0.6c-0.8,0-1.6,0.3-2.3,0.8v8.1h-2.5v-11.2h2.1l0.3,0.9
		c0.8-0.7,1.7-1.1,2.8-1.1c0.3,0,0.7,0,1.1,0.1c0.4,0.1,0.8,0.2,1.1,0.3L181.4,141.9z"/>
	<path class="st0" d="M183.9,136.1c0-0.4,0.2-0.8,0.4-1c0.3-0.3,0.6-0.4,1.1-0.4s0.8,0.2,1.1,0.4c0.3,0.3,0.4,0.6,0.4,1
		c0,0.4-0.2,0.8-0.4,1c-0.3,0.3-0.6,0.4-1.1,0.4s-0.8-0.2-1.1-0.4C184,136.9,183.9,136.6,183.9,136.1 M184.1,139.1h2.5v11.2h-2.5
		V139.1z"/>
	<path class="st0" d="M189.6,139.1h2.1l0.2,0.9c1-0.7,2.3-1.1,3.6-1.1c1.1,0,2.1,0.3,2.8,0.9c0.7,0.6,1.2,1.6,1.2,3v7.4h-2.5v-6.7
		c0-0.8-0.3-1.4-0.8-1.8c-0.5-0.4-1.1-0.5-1.8-0.5c-0.9,0-1.7,0.3-2.4,0.7v8.3h-2.5V139.1z"/>
	<path class="st0" d="M212.1,140.2l-0.1,0.2c-0.6,0.1-1.2,0.3-1.9,0.7c0.2,0.4,0.3,0.9,0.3,1.4c0,1.1-0.4,2-1.2,2.8
		c-0.7,0.7-1.8,1.2-3,1.2c-0.5,0-0.9-0.1-1.3-0.2c-0.2,0.2-0.2,0.4-0.2,0.6c0,0.5,0.5,0.8,1.2,0.8h1.3c1.5,0,2.7,0.4,3.4,1
		c0.7,0.6,1.1,1.5,1.1,2.4c0,1.2-0.7,2.3-1.8,3.1c-1.1,0.8-2.5,1.3-3.9,1.3c-1.3,0-2.3-0.4-3-1c-0.7-0.6-1.1-1.5-1.1-2.5
		c0-0.9,0.5-2,1.3-2.8c-0.3-0.2-0.5-0.5-0.7-0.8c-0.2-0.3-0.2-0.7-0.2-1c0-0.6,0.3-1.3,0.8-2c-0.3-0.3-0.5-0.7-0.7-1.2
		c-0.1-0.5-0.2-1-0.2-1.4c0-1.1,0.4-2,1.2-2.7c0.7-0.7,1.8-1.1,3-1.1c0.8,0,1.6,0.2,2.2,0.5c0.5-0.4,1-0.6,1.5-0.8
		c0.5-0.2,1-0.3,1.3-0.3L212.1,140.2z M205.2,149.9c-0.4,0.5-0.7,1-0.7,1.5c0,0.4,0.2,0.8,0.5,1.1c0.3,0.3,0.9,0.4,1.5,0.4
		c0.8,0,1.4-0.2,1.9-0.6c0.5-0.3,0.8-0.8,0.8-1.2c0-0.6-0.3-0.9-0.8-1.1c-0.5-0.2-1.2-0.2-2-0.2H205.2z M206.3,141.1
		c-0.6,0-1,0.2-1.3,0.5c-0.3,0.3-0.5,0.7-0.5,1.1c0,0.4,0.2,0.8,0.5,1.1c0.3,0.3,0.7,0.5,1.3,0.5c0.6,0,1-0.2,1.3-0.5
		c0.3-0.3,0.4-0.7,0.4-1.1c0-0.4-0.1-0.8-0.4-1.1C207.3,141.3,206.9,141.1,206.3,141.1"/>

		<rect x="110.6" y="100.2" transform="matrix(0.9449 -0.3274 0.3274 0.9449 -37.9635 43.6896)" class="st0" width="0.3" height="68.9"/>
	<path class="st0" d="M100.3,133.9c-1.7-1.3-2.4,0-3.5-0.1c-0.9-0.1-1.7-1.5-2.4-1.2c-1.3,0.7,0.5,3,1.3,3.5
		c0.7,0.4,1.6,0.8,1.8,0.9c1.1,0.5,1.5,1.2,1.6,2.4c0,0.3,0,0.9-0.1,1.2c-0.5,2-4,3.9-6.1,2.5c-1-0.7-1.8-1.5-2.2-3
		c-0.6-2.7-2.5-4.6-3.1-7.3c-0.4-1.6-0.7-3.3-1.1-4.9c-0.4-1.7-0.9-3.3-1.2-4.8c-0.3-1.4-1-3.5-1.5-4.8c-2-5.1-2.8-4.7-2.8-4.7
		s0.7,1.4,3.3,13.9c0.1,0.5,1,6,1.7,7.8c0.2,0.7,0.7,2,1,2.7c0.8,1.8,3,4.5,3.1,7c0.1,1.4,0.2,2.6,0.3,3.7c0,0.3,0.2,1.6,0.4,2.2
		c0.5,1.5,4.8,6.3,9.4,6.3v-3.7c-4.5,0-8.8-2.5-8.9-2.8c-0.1-0.1,0.2-1.8,0.5-2.6c0.6-1.5,1.7-2.8,3.7-3c2.2-0.2,3.5,0.5,4.7,0.5
		L100.3,133.9z"/>
	<path class="st0" d="M80.7,120.6c-0.2,2.7-4.4,6.5-5.7,8.9c-0.7,1.2-1.4,3.2-1.7,4.4c-0.6,3.3,0.2,5.3,0.9,7.2
		c1.4,3.4-0.2,4.6,0.9,3.9c1.4-1.1,1.2-3.7,1-5.3c-0.1-1.3-0.2-2.8,0-4.3c0.4-2.9,2.1-6,3.6-8.2C81.7,124.5,81,121.8,80.7,120.6"/>
	<path class="st0" d="M81.5,128.4c0,0,0.5,2.2-1.5,7.7c-5,14.6,4.6,16,7.3,19.4c0,0,1.1-1.5-3.3-6.2c-1.6-1.7-3-5.6-1.8-11
		C84.1,130.3,81.5,128.4,81.5,128.4"/>
	<path class="st0" d="M72.1,118.8c-0.2-0.9-0.3-1.6-0.2-2.3c0.2-3.4,3.3-4.8,4.1-5.3c0,0,1.4-1,1.6-1.9c0,0,1.4,3.6-1.9,5.7
		C74,116,72.9,117.2,72.1,118.8"/>
	<path class="st0" d="M79.9,115.5c0.2,0.3,1.5,2.2-3.8,6.6c-5.3,4.4-3.6,7.5-3.6,7.5s-5.6-3.1,0.9-8.5c6.5-5.4,5.2-6.5,5.2-6.5
		S79.4,114.5,79.9,115.5"/>
	<path class="st0" d="M86.8,117.2c0.9,0.1,1.5,3,3.6,3.6c1.6,0.5,3.2,0.2,3.6,1.1c-0.7,0.4-0.1,1.6,0.6,1.4
		C95.1,121.7,95.4,115.2,86.8,117.2 M89.6,118.5c0.1-0.2,0.2,0,0.4-0.2c0.2-0.2,0.5-0.6,0.9-0.7c0.3-0.1,0.7,0,0.9,0.1
		c0.2,0,0.1,0.5-0.1,0.6c-0.3,0.2-1.1-0.1-1.1,0.5c0,1,1.4,0,2.1,0C93.2,121.2,89,120.5,89.6,118.5"/>
</g>
</svg>
