<svg width="24" height="24" viewBox="0 0 24 24" fill="none" xmlns="http://www.w3.org/2000/svg">
<path d="M20.9999 22H2.9999C2.82944 21.9995 2.66194 21.9554 2.5133 21.872C2.36467 21.7885 2.23984 21.6684 2.15067 21.5231C2.06149 21.3779 2.01094 21.2122 2.00381 21.0419C1.99667 20.8716 2.03319 20.7023 2.1099 20.55L11.1099 2.55003C11.1928 2.38362 11.3205 2.24363 11.4786 2.14578C11.6367 2.04793 11.819 1.99609 12.0049 1.99609C12.1908 1.99609 12.3731 2.04793 12.5312 2.14578C12.6893 2.24363 12.817 2.38362 12.8999 2.55003L21.8999 20.55C21.977 20.703 22.0135 20.8732 22.0059 21.0444C21.9983 21.2155 21.9469 21.3819 21.8565 21.5274C21.7662 21.673 21.64 21.7929 21.49 21.8756C21.34 21.9584 21.1712 22.0012 20.9999 22ZM4.6199 20H19.3799L11.9999 5.24003L4.6199 20ZM10.9999 10H12.9999V16H10.9999V10ZM11.9999 19.25C11.7527 19.25 11.511 19.1767 11.3054 19.0394C11.0999 18.902 10.9397 18.7068 10.8451 18.4784C10.7504 18.25 10.7257 17.9986 10.7739 17.7562C10.8222 17.5137 10.9412 17.291 11.116 17.1161C11.2908 16.9413 11.5136 16.8223 11.756 16.774C11.9985 16.7258 12.2499 16.7506 12.4783 16.8452C12.7067 16.9398 12.9019 17.1 13.0392 17.3056C13.1766 17.5111 13.2499 17.7528 13.2499 18C13.2499 18.3315 13.1182 18.6495 12.8838 18.8839C12.6494 19.1183 12.3314 19.25 11.9999 19.25Z" fill="#666666"/>
</svg>
