<svg width="24" height="24" viewBox="0 0 24 24" fill="none" xmlns="http://www.w3.org/2000/svg">
<path d="M21 4.00002H14C13.8684 3.99926 13.7379 4.02448 13.6161 4.07425C13.4943 4.12401 13.3834 4.19734 13.29 4.29002L12 5.59002L10.71 4.29002C10.6166 4.19734 10.5057 4.12401 10.3839 4.07425C10.2621 4.02448 10.1316 3.99926 10 4.00002H3C2.73478 4.00002 2.48043 4.10537 2.29289 4.29291C2.10536 4.48045 2 4.7348 2 5.00002V18C2 18.2652 2.10536 18.5196 2.29289 18.7071C2.48043 18.8947 2.73478 19 3 19H9.59L11.3 20.71C11.4874 20.8963 11.7408 21.0008 12.005 21.0008C12.2692 21.0008 12.5226 20.8963 12.71 20.71L14.41 19H21C21.2652 19 21.5196 18.8947 21.7071 18.7071C21.8946 18.5196 22 18.2652 22 18V5.00002C22 4.7348 21.8946 4.48045 21.7071 4.29291C21.5196 4.10537 21.2652 4.00002 21 4.00002V4.00002ZM10 17H4V6.00002H9.59L11 7.41002V17.59L10.71 17.3C10.6174 17.2055 10.5069 17.1304 10.3851 17.0789C10.2632 17.0274 10.1323 17.0006 10 17ZM20 17H14C13.8684 16.9993 13.7379 17.0245 13.6161 17.0742C13.4943 17.124 13.3834 17.1973 13.29 17.29L13 17.59V7.41002L14.41 6.00002H20V17Z" fill="#666666"/>
</svg>
