<svg width="20" height="17" viewBox="0 0 20 17" fill="none" xmlns="http://www.w3.org/2000/svg">
<path d="M19 1.67143e-05H12C11.8684 -0.000744179 11.7379 0.0244809 11.6161 0.0742455C11.4943 0.12401 11.3834 0.197335 11.29 0.290017L10 1.59002L8.71 0.290017C8.61656 0.197335 8.50574 0.12401 8.38391 0.0742455C8.26207 0.0244809 8.13161 -0.000744179 8 1.67143e-05H1C0.734784 1.67143e-05 0.48043 0.105374 0.292893 0.29291C0.105357 0.480447 0 0.7348 0 1.00002V14C0 14.2652 0.105357 14.5196 0.292893 14.7071C0.48043 14.8947 0.734784 15 1 15H7.59L9.3 16.71C9.48736 16.8963 9.74082 17.0008 10.005 17.0008C10.2692 17.0008 10.5226 16.8963 10.71 16.71L12.41 15H19C19.2652 15 19.5196 14.8947 19.7071 14.7071C19.8946 14.5196 20 14.2652 20 14V1.00002C20 0.7348 19.8946 0.480447 19.7071 0.29291C19.5196 0.105374 19.2652 1.67143e-05 19 1.67143e-05ZM8 13H2V2.00002H7.59L9 3.41002V13.59L8.71 13.3C8.61739 13.2055 8.50694 13.1304 8.38507 13.0789C8.26319 13.0274 8.13231 13.0006 8 13ZM18 13H12C11.8684 12.9993 11.7379 13.0245 11.6161 13.0742C11.4943 13.124 11.3834 13.1973 11.29 13.29L11 13.59V3.41002L12.41 2.00002H18V13Z" fill="#666666"/>
</svg>
