<svg width="18" height="18" viewBox="0 0 18 18" fill="none" xmlns="http://www.w3.org/2000/svg">
<path d="M6.33332 4.8V5.87692H4.55555V4.8H2.77775L2.77778 14.2769L10 14.2768V16H2.77778C2.33333 16 1.88889 16 1.44444 15.5692C1 15.1385 0.999969 14.7077 1 14.2769V4.8C1 4.45726 1 3.93846 1.44444 3.50769C1.88889 3.07692 2.33333 3.07692 2.77775 3.07692H4.55555V2H6.33332V3.07692H11.6666V2H13.4444V3.07692H15.2222C15.6667 3.07682 16.2325 3.19446 16.5556 3.50759C16.8056 3.74994 17 4.36913 17 4.79989V9H15.2222V4.8H13.4444V5.87692H11.6666V4.8H6.33332Z" fill="#666666"/>
<path d="M15 12H17V14H15V16H13V14H11V12H13V10H15V12Z" fill="#666666"/>
</svg>
