<svg width="24" height="24" viewBox="0 0 24 24" fill="none" xmlns="http://www.w3.org/2000/svg">
<path d="M21 3C21.5304 3 22.0391 3.21071 22.4142 3.58579C22.7893 3.96086 23 4.46957 23 5V20C23 20.5304 22.7893 21.0391 22.4142 21.4142C22.0391 21.7893 21.5304 22 21 22H3C2.46957 22 1.96086 21.7893 1.58579 21.4142C1.21071 21.0391 1 20.5304 1 20V5C1 4.46957 1.21071 3.96086 1.58579 3.58579C1.96086 3.21071 2.46957 3 3 3H6V5H3V20H21V5H18V7H16V1H18V3H21ZM8 5V7H6V1H8V3H16V5H8ZM5 9H9V13H5V9ZM10 9H14V13H10V9ZM15 9H19V13H15V9ZM5 14H9V18H5V14ZM10 14H14V18H10V14Z" fill="#666666"/>
</svg>
