<svg width="24" height="24" viewBox="0 0 24 24" fill="none" xmlns="http://www.w3.org/2000/svg">
<path d="M12 22C6.486 22 2 17.515 2 12C2 6.487 6.486 2 12 2C17.514 2 22 6.486 22 12C22 17.515 17.514 22 12 22ZM12 4C7.589 4 4 7.589 4 12C4 16.411 7.589 20 12 20C16.411 20 20 16.411 20 12C20 7.589 16.411 4 12 4ZM13 15H15V17H9V15H11V12H10V10H12C12.553 10 13 10.448 13 11V15ZM12 9.25C11.3096 9.25 10.75 8.69036 10.75 8C10.75 7.30964 11.3096 6.75 12 6.75C12.6904 6.75 13.25 7.30964 13.25 8C13.25 8.69036 12.6904 9.25 12 9.25Z" fill="#666666"/>
</svg>
