<svg width="16" height="16" viewBox="0 0 16 16" fill="none" xmlns="http://www.w3.org/2000/svg">
  <path d="M8 2C4.68629 2 2 4.68629 2 8C2 11.3137 4.68629 14 8 14C11.3137 14 14 11.3137 14 8C14 4.68629 11.3137 2 8 2ZM0.5 8C0.5 3.85786 3.85786 0.5 8 0.5C12.1421 0.5 15.5 3.85786 15.5 8C15.5 12.1421 12.1421 15.5 8 15.5C3.85786 15.5 0.5 12.1421 0.5 8ZM4.84467 4.84467C5.13756 4.55178 5.61244 4.55178 5.90533 4.84467L8 6.93934L10.0947 4.84467C10.3876 4.55178 10.8624 4.55178 11.1553 4.84467C11.4482 5.13756 11.4482 5.61244 11.1553 5.90533L9.06066 8L11.1553 10.0947C11.4482 10.3876 11.4482 10.8624 11.1553 11.1553C10.8624 11.4482 10.3876 11.4482 10.0947 11.1553L8 9.06066L5.90533 11.1553C5.61244 11.4482 5.13756 11.4482 4.84467 11.1553C4.55178 10.8624 4.55178 10.3876 4.84467 10.0947L6.93934 8L4.84467 5.90533C4.55178 5.61244 4.55178 5.13756 4.84467 4.84467Z" fill="#DB3434"/>
</svg>
