<svg width="24" height="24" viewBox="0 0 24 24" fill="none" xmlns="http://www.w3.org/2000/svg">
  <path d="M12 22C6.486 22 2 17.515 2 12C2 6.487 6.486 2 12 2C17.514 2 22 6.486 22 12C22 17.515 17.514 22 12 22ZM12 4C7.589 4 4 7.589 4 12C4 16.411 7.589 20 12 20C16.411 20 20 16.411 20 12C20 7.589 16.411 4 12 4Z" fill="#666666"/>
  <circle cx="7.99984" cy="11.9998" r="1.33333" fill="#666666"/>
  <circle cx="11.9998" cy="11.9998" r="1.33333" fill="#666666"/>
  <ellipse cx="15.9998" cy="11.9998" rx="1.33333" ry="1.33333" fill="#666666"/>
</svg>
