<svg width="24" height="24" viewBox="0 0 24 24" fill="none" xmlns="http://www.w3.org/2000/svg">
<path d="M12 22C10.0222 22 8.08879 21.4135 6.4443 20.3147C4.79981 19.2159 3.51809 17.6541 2.76121 15.8268C2.00433 13.9996 1.8063 11.9889 2.19215 10.0491C2.578 8.10929 3.53041 6.32746 4.92894 4.92894C6.32746 3.53041 8.10929 2.578 10.0491 2.19215C11.9889 1.8063 13.9996 2.00433 15.8268 2.76121C17.6541 3.51809 19.2159 4.79981 20.3147 6.4443C21.4135 8.08879 22 10.0222 22 12C22 14.6522 20.9464 17.1957 19.0711 19.0711C17.1957 20.9464 14.6522 22 12 22ZM12 3.90477C10.3989 3.90477 8.83379 4.37954 7.50253 5.26906C6.17128 6.15858 5.13369 7.42288 4.52098 8.90209C3.90827 10.3813 3.74796 12.009 4.06031 13.5793C4.37267 15.1496 5.14367 16.5921 6.27581 17.7242C7.40795 18.8563 8.85038 19.6273 10.4207 19.9397C11.991 20.252 13.6187 20.0917 15.0979 19.479C16.5771 18.8663 17.8414 17.8287 18.7309 16.4975C19.6205 15.1662 20.0952 13.6011 20.0952 12C20.0965 10.9366 19.888 9.88333 19.4816 8.90061C19.0752 7.91788 18.479 7.02497 17.727 6.27301C16.975 5.52105 16.0821 4.92481 15.0994 4.51843C14.1167 4.11205 13.0634 3.90351 12 3.90477ZM12.8571 6.09524H10.9524V12.4762L14.8571 15.1429L15.9048 13.5238L12.7619 11.4286V6.09524H12.8571Z" fill="#666666"/>
</svg>
