<svg width="18" height="18" viewBox="0 0 18 18" fill="none" xmlns="http://www.w3.org/2000/svg">
<path d="M14.9989 0.881348L16.5983 2.39192L13.6285 5.5364C13.9689 5.7593 14.2836 5.98971 14.5693 6.21522C15.2496 6.75224 15.7979 7.28733 16.1768 7.68844C16.3668 7.88959 16.5157 8.05862 16.6187 8.17948C16.6702 8.23995 16.7104 8.28849 16.7387 8.32311C16.7528 8.34042 16.7639 8.35426 16.772 8.36439L16.7819 8.37676L16.7851 8.3808L16.7867 8.38287L15.9999 9.00012C16.7871 9.61687 16.7862 9.61797 16.7862 9.61797L16.7851 9.61945L16.7819 9.62349L16.772 9.63586C16.7639 9.64598 16.7528 9.65983 16.7387 9.67714C16.7104 9.71175 16.6702 9.76029 16.6187 9.82077C16.5157 9.94163 16.3668 10.1107 16.1768 10.3118C15.7979 10.7129 15.2496 11.248 14.5693 11.785C13.2342 12.839 11.2649 14.0001 8.99988 14.0001C7.99176 14.0001 7.04221 13.7701 6.18109 13.4219L2.66804 17.1416L1.06861 15.631L4.18032 12.3362C3.9125 12.1537 3.66197 11.9677 3.43051 11.785C2.75024 11.248 2.2019 10.7129 1.82301 10.3118C1.63301 10.1107 1.48415 9.94163 1.38111 9.82077C1.32955 9.76029 1.28937 9.71175 1.26113 9.67714C1.24701 9.65983 1.23586 9.64598 1.22777 9.63586L1.21793 9.62349L1.21474 9.61945L1.21272 9.61687L1.99988 9.00012C1.21272 8.38338 1.21358 8.38227 1.21358 8.38227L1.21474 8.3808L1.21793 8.37676L1.22777 8.36439C1.23586 8.35426 1.24701 8.34042 1.26113 8.32311C1.28937 8.28849 1.32955 8.23995 1.38111 8.17948C1.48415 8.05862 1.63301 7.88959 1.82301 7.68844C2.2019 7.28733 2.75024 6.75224 3.43051 6.21522C4.76559 5.16128 6.73491 4.00012 8.99988 4.00012C9.91987 4.00012 10.7911 4.19169 11.5909 4.48984L14.9989 0.881348ZM10.0546 6.11649C9.70838 6.04159 9.35587 6.00012 8.99988 6.00012C7.39886 6.00012 5.86817 6.83896 4.66975 7.78502C4.1172 8.22122 3.66201 8.65914 3.33559 9.00012C3.66201 9.3411 4.1172 9.77902 4.66975 10.2152C4.95381 10.4395 5.25653 10.6577 5.57443 10.8601L10.0546 6.11649ZM7.69146 11.8227C8.1185 11.9358 8.55649 12.0001 8.99988 12.0001C10.6009 12.0001 12.1316 11.1613 13.33 10.2152C13.8826 9.77902 14.3378 9.3411 14.6642 9.00012C14.3378 8.65914 13.8826 8.22122 13.33 7.78502C12.988 7.51504 12.619 7.25379 12.229 7.01828L7.69146 11.8227ZM1.99988 9.00012L1.21272 8.38338L0.729492 9.00012L1.21272 9.61687C1.21272 9.61687 1.21272 9.61687 1.99988 9.00012ZM15.9999 9.00012L16.7871 9.61687L17.2703 9.00012L16.7867 8.38287C16.7867 8.38287 16.7871 8.38338 15.9999 9.00012Z" fill="#666666"/>
</svg>
