<svg width="18" height="18" viewBox="0 0 18 18" fill="none" xmlns="http://www.w3.org/2000/svg">
<path fill-rule="evenodd" clip-rule="evenodd" d="M14.9991 0.881348L16.5985 2.39192L13.6287 5.5364C13.9691 5.7593 14.2838 5.98971 14.5695 6.21522C15.2498 6.75224 15.7981 7.28733 16.177 7.68844C16.367 7.88959 16.5159 8.05862 16.6189 8.17948C16.6704 8.23995 16.7106 8.28849 16.7389 8.32311C16.753 8.34042 16.7641 8.35426 16.7722 8.36439L16.7821 8.37676L16.7853 8.3808L16.7869 8.38287L16.0001 9.00012C16.7873 9.61687 16.7864 9.61797 16.7864 9.61797L16.7853 9.61945L16.7821 9.62349L16.7722 9.63586C16.7641 9.64598 16.753 9.65983 16.7389 9.67714C16.7106 9.71175 16.6704 9.76029 16.6189 9.82077C16.5159 9.94163 16.367 10.1107 16.177 10.3118C15.7981 10.7129 15.2498 11.248 14.5695 11.785C13.2344 12.839 11.2651 14.0001 9.00012 14.0001C7.992 14.0001 7.04245 13.7701 6.18133 13.4219L2.66828 17.1416L1.06885 15.631L4.18056 12.3362C3.91274 12.1537 3.66221 11.9677 3.43075 11.785C2.75048 11.248 2.20214 10.7129 1.82325 10.3118C1.63325 10.1107 1.48439 9.94163 1.38135 9.82077C1.32979 9.76029 1.28961 9.71175 1.26137 9.67714C1.24725 9.65983 1.2361 9.64598 1.22801 9.63586L1.21817 9.62349L1.21498 9.61945L1.21296 9.61687L2.00012 9.00012C1.21296 8.38338 1.21382 8.38227 1.21382 8.38227L1.21498 8.3808L1.21817 8.37676L1.22801 8.36439C1.2361 8.35426 1.24725 8.34042 1.26137 8.32311C1.28961 8.28849 1.32979 8.23995 1.38135 8.17948C1.48439 8.05862 1.63325 7.88959 1.82325 7.68844C2.20214 7.28733 2.75048 6.75224 3.43075 6.21522C4.76583 5.16128 6.73515 4.00012 9.00012 4.00012C9.92011 4.00012 10.7913 4.19169 11.5911 4.48984L14.9991 0.881348ZM10.0548 6.11649C9.70862 6.04159 9.35611 6.00012 9.00012 6.00012C7.3991 6.00012 5.86841 6.83896 4.66999 7.78502C4.11744 8.22122 3.66225 8.65914 3.33583 9.00012C3.66225 9.3411 4.11744 9.77902 4.66999 10.2152C4.95405 10.4395 5.25677 10.6577 5.57467 10.8601L10.0548 6.11649ZM7.6917 11.8227C8.11874 11.9358 8.55673 12.0001 9.00012 12.0001C10.6011 12.0001 12.1318 11.1613 13.3302 10.2152C13.8828 9.77902 14.338 9.3411 14.6644 9.00012C14.338 8.65914 13.8828 8.22122 13.3302 7.78502C12.9882 7.51504 12.6192 7.25379 12.2292 7.01828L7.6917 11.8227ZM2.00012 9.00012L1.21296 8.38338L0.729736 9.00012L1.21296 9.61687C1.21296 9.61687 1.21296 9.61687 2.00012 9.00012ZM16.0001 9.00012L16.7873 9.61687L17.2705 9.00012L16.7869 8.38287C16.7869 8.38287 16.7873 8.38338 16.0001 9.00012Z" fill="#666666"/>
</svg>
