<svg width="24" height="24" viewBox="0 0 24 24" fill="none" xmlns="http://www.w3.org/2000/svg">
<g clip-path="url(#clip0)">
<path d="M6.67383 4C7.79682 1.63609 10.2062 0 12.9999 0C16.8659 0 19.9999 3.13401 19.9999 7C19.9999 10.866 16.8659 14 12.9999 14H11H5C2.23858 14 0 11.7614 0 9C0 6.23858 2.23858 4 5 4H5.5H6.67383ZM5 6C3.34315 6 2 7.34315 2 9C2 10.6569 3.34315 12 5 12H11H12.9999C15.7613 12 17.9999 9.76142 17.9999 7C17.9999 4.23858 15.7613 2 12.9999 2C10.8244 2 8.97102 3.38991 8.28415 5.33325L8.04848 6H7.34131H5.5H5ZM20.2901 17.83L22.5801 20.12L24.0001 18.71L19.2901 14L14.5801 18.71L16.0001 20.12L18.2901 17.83V24H20.2901V17.83Z" fill="#666666"/>
</g>
<defs>
<clipPath id="clip0">
<rect width="24" height="24" fill="white"/>
</clipPath>
</defs>
</svg>
