<svg width="30" height="30" viewBox="0 0 30 30" fill="none" xmlns="http://www.w3.org/2000/svg">
<rect x="12" y="24" width="5.5" height="1.5" rx="0.75" fill="#0066CC"/>
<rect x="13" y="27" width="4" height="1" rx="0.5" fill="#0066CC"/>
<path d="M17.8125 20L17.3101 19.4431C17.1525 19.5853 17.0625 19.7877 17.0625 20H17.8125ZM11.625 20H12.375C12.375 19.8001 12.2952 19.6084 12.1533 19.4676L11.625 20ZM11.625 22H10.875C10.875 22.4142 11.2108 22.75 11.625 22.75V22ZM17.8125 22V22.75C18.2267 22.75 18.5625 22.4142 18.5625 22H17.8125ZM6.75 10C6.75 6.07654 10.3582 2.75 15 2.75V1.25C9.70071 1.25 5.25 5.0869 5.25 10H6.75ZM15 2.75C19.6418 2.75 23.25 6.07654 23.25 10H24.75C24.75 5.0869 20.2993 1.25 15 1.25V2.75ZM23.25 10C23.25 10.9396 22.9175 11.9957 22.3642 13.0874C21.8147 14.1717 21.0737 15.24 20.3189 16.1904C19.5659 17.1386 18.8109 17.9546 18.2435 18.5341C17.9601 18.8233 17.7246 19.0526 17.5609 19.2086C17.4791 19.2866 17.4153 19.3463 17.3724 19.3859C17.351 19.4057 17.3349 19.4205 17.3244 19.4301C17.3191 19.4349 17.3153 19.4384 17.3129 19.4406C17.3117 19.4417 17.3109 19.4425 17.3104 19.4429C17.3102 19.4431 17.31 19.4432 17.31 19.4432C17.31 19.4433 17.31 19.4432 17.31 19.4432C17.31 19.4432 17.3101 19.4431 17.8125 20C18.3149 20.5569 18.315 20.5568 18.3152 20.5566C18.3152 20.5566 18.3154 20.5564 18.3156 20.5562C18.3159 20.5559 18.3163 20.5556 18.3169 20.5551C18.3179 20.5542 18.3193 20.5529 18.3211 20.5513C18.3246 20.548 18.3297 20.5435 18.3361 20.5376C18.349 20.5258 18.3676 20.5087 18.3915 20.4866C18.4394 20.4423 18.5085 20.3777 18.5958 20.2944C18.7705 20.128 19.0184 19.8866 19.3151 19.5836C19.9078 18.9784 20.6997 18.1229 21.4936 17.1233C22.2856 16.126 23.0915 14.9705 23.7022 13.7655C24.3091 12.568 24.75 11.2695 24.75 10H23.25ZM5.25 10C5.25 11.2545 5.64645 12.5437 6.19772 13.7403C6.75192 14.9432 7.48394 16.098 8.20443 17.0959C8.92634 18.0958 9.64663 18.9518 10.1859 19.5575C10.456 19.8608 10.6816 20.1025 10.8406 20.2692C10.9201 20.3526 10.9831 20.4173 11.0267 20.4617C11.0485 20.4839 11.0654 20.501 11.0772 20.5129C11.0831 20.5188 11.0877 20.5234 11.091 20.5267C11.0926 20.5283 11.0939 20.5296 11.0949 20.5305C11.0953 20.531 11.0957 20.5314 11.0961 20.5317C11.0962 20.5319 11.0964 20.532 11.0965 20.5321C11.0966 20.5323 11.0967 20.5324 11.625 20C12.1533 19.4676 12.1534 19.4677 12.1534 19.4678C12.1534 19.4678 12.1535 19.4678 12.1534 19.4678C12.1534 19.4677 12.1533 19.4676 12.1531 19.4674C12.1527 19.467 12.1519 19.4663 12.1509 19.4652C12.1487 19.4631 12.1453 19.4596 12.1405 19.4548C12.131 19.4453 12.1164 19.4305 12.097 19.4108C12.0582 19.3713 12.0003 19.3117 11.926 19.2339C11.7774 19.0781 11.5636 18.8491 11.3063 18.5601C10.7909 17.9812 10.1049 17.1657 9.42057 16.2178C8.73481 15.268 8.06058 14.199 7.56009 13.1126C7.05668 12.02 6.75 10.9546 6.75 10H5.25ZM10.875 20V22H12.375V20H10.875ZM11.625 22.75H17.8125V21.25H11.625V22.75ZM18.5625 22V20H17.0625V22H18.5625Z" fill="#0066CC"/>
</svg>
