<svg width="24" height="24" viewBox="0 0 24 24" fill="none" xmlns="http://www.w3.org/2000/svg">
<path d="M16.2401 3.51012C15.6776 2.94832 14.9151 2.63276 14.1201 2.63276C13.3251 2.63276 12.5626 2.94832 12.0001 3.51012L8.4701 7.05012L9.8801 8.46012L13.4101 4.92012C13.5974 4.73387 13.8509 4.62933 14.1151 4.62933C14.3793 4.62933 14.6327 4.73387 14.8201 4.92012L16.2401 3.51012Z" fill="#666666"/>
<path d="M19.0701 9.17014C19.2564 9.3575 19.3609 9.61095 19.3609 9.87514C19.3609 10.1393 19.2564 10.3927 19.0701 10.5801L15.5301 14.1201L16.9401 15.5301L20.4801 12.0001C21.0419 11.4376 21.3575 10.6751 21.3575 9.88014C21.3575 9.08514 21.0419 8.32264 20.4801 7.76014L19.0701 9.17014Z" fill="#666666"/>
<path d="M3.52013 16.2401L4.93013 14.8301C4.74388 14.6427 4.63934 14.3893 4.63934 14.1251C4.63934 13.8609 4.74388 13.6075 4.93013 13.4201L8.46013 9.88012L7.05013 8.46012L3.52013 12.0001C2.95833 12.5626 2.64277 13.3251 2.64277 14.1201C2.64277 14.9151 2.95833 15.6776 3.52013 16.2401Z" fill="#666666"/>
<path d="M14.1201 15.5401L10.5801 19.0801C10.3927 19.2663 10.1393 19.3709 9.87514 19.3709C9.61095 19.3709 9.3575 19.2663 9.17014 19.0801L7.76014 20.4901C8.32264 21.0519 9.08514 21.3675 9.88014 21.3675C10.6751 21.3675 11.4376 21.0519 12.0001 20.4901L15.5401 17.0001L14.1201 15.5401Z" fill="#666666"/>
<path d="M19.7801 2.81013L21.1901 4.22013L14.1201 11.2901L12.7101 9.88013L19.7801 2.81013Z" fill="#666666"/>
<path d="M9.88013 12.7101L11.2901 14.1201L4.22013 21.1901L2.81013 19.7801L9.88013 12.7101Z" fill="#666666"/>
<path d="M19.7801 14.5401H22.6101V16.5401H19.7801V14.5401Z" fill="#666666"/>
<path d="M14.5401 19.7801H16.5401V22.6101H14.5401V19.7801Z" fill="#666666"/>
<path d="M7.46015 1.39014H9.46015V4.22014H7.46015V1.39014Z" fill="#666666"/>
<path d="M1.39014 7.46012H4.22014V9.46012H1.39014V7.46012Z" fill="#666666"/>
</svg>
