<svg width="24" height="24" viewBox="0 0 24 24" fill="none" xmlns="http://www.w3.org/2000/svg">
<path d="M16.24 3.50999C15.6775 2.94819 14.915 2.63263 14.12 2.63263C13.325 2.63263 12.5625 2.94819 12 3.50999L8.46997 7.04999L9.87997 8.45999L13.41 4.91999C13.5973 4.73374 13.8508 4.6292 14.115 4.6292C14.3792 4.6292 14.6326 4.73374 14.82 4.91999L16.24 3.50999Z" fill="#666666"/>
<path d="M19.07 9.17001C19.2563 9.35737 19.3608 9.61082 19.3608 9.87501C19.3608 10.1392 19.2563 10.3926 19.07 10.58L15.53 14.12L16.94 15.53L20.48 12C21.0418 11.4375 21.3574 10.675 21.3574 9.88001C21.3574 9.08501 21.0418 8.32251 20.48 7.76001L19.07 9.17001Z" fill="#666666"/>
<path d="M3.52 16.24L4.93 14.83C4.74375 14.6426 4.63921 14.3892 4.63921 14.125C4.63921 13.8608 4.74375 13.6074 4.93 13.42L8.46 9.87999L7.05 8.45999L3.52 12C2.9582 12.5625 2.64264 13.325 2.64264 14.12C2.64264 14.915 2.9582 15.6775 3.52 16.24V16.24Z" fill="#666666"/>
<path d="M14.12 15.54L10.58 19.08C10.3926 19.2662 10.1392 19.3708 9.87501 19.3708C9.61082 19.3708 9.35737 19.2662 9.17001 19.08L7.76001 20.49C8.32251 21.0518 9.08501 21.3674 9.88001 21.3674C10.675 21.3674 11.4375 21.0518 12 20.49L15.54 17L14.12 15.54Z" fill="#666666"/>
<path d="M19.78 2.81L21.19 4.22L14.12 11.29L12.71 9.88L19.78 2.81Z" fill="#666666"/>
<path d="M9.88 12.71L11.29 14.12L4.22 21.19L2.81 19.78L9.88 12.71Z" fill="#666666"/>
<path d="M19.78 14.54H22.61V16.54H19.78V14.54Z" fill="#666666"/>
<path d="M14.54 19.78H16.54V22.61H14.54V19.78Z" fill="#666666"/>
<path d="M7.46002 1.39001H9.46002V4.22001H7.46002V1.39001V1.39001Z" fill="#666666"/>
<path d="M1.39001 7.45999H4.22001V9.45999H1.39001V7.45999V7.45999Z" fill="#666666"/>
</svg>
