<svg width="18" height="18" viewBox="0 0 18 18" fill="none" xmlns="http://www.w3.org/2000/svg">
<path d="M9.00001 1.25C6.84937 1.24998 5 3.05147 5 6V6.00163L5.00001 6.00492L5.00002 6.00658L5.00985 7.49997H5C3.61929 7.49997 2.5 8.61926 2.5 9.99997V14C2.5 15.3807 3.61929 16.5 5 16.5H13C14.3807 16.5 15.5 15.3807 15.5 14V9.99997C15.5 8.61926 14.3807 7.49997 13 7.49997H7.00989L7 5.9968C7.00062 4.95945 7.30123 4.27564 7.68012 3.8572C8.06128 3.43625 8.55046 3.25 8.99999 3.25C9.44964 3.25 9.93894 3.43636 10.3201 3.85753C10.6993 4.27642 11 4.96113 11 6.00002V6.50002H13V6.00002C13 3.05151 11.1506 1.25002 9.00001 1.25ZM4.5 9.99997C4.5 9.72383 4.72386 9.49997 5 9.49997H13C13.2761 9.49997 13.5 9.72383 13.5 9.99997V14C13.5 14.2761 13.2761 14.5 13 14.5H5C4.72386 14.5 4.5 14.2761 4.5 14V9.99997Z" fill="#666666"/>
<path d="M9 10.5C8.17157 10.5 7.5 11.1716 7.5 12C7.5 12.8284 8.17157 13.5 9 13.5C9.82843 13.5 10.5 12.8284 10.5 12C10.5 11.1716 9.82843 10.5 9 10.5Z" fill="#666666"/>
</svg>
