<svg width="24" height="24" viewBox="0 0 24 24" fill="none" xmlns="http://www.w3.org/2000/svg">
<path d="M5.30345 13.5252C3.93662 14.8921 3.93662 17.1081 5.30345 18.475C6.67029 19.8418 8.88636 19.8418 10.2531 18.475L19.092 9.63612L20.5062 11.0504L11.6674 19.8892C9.51953 22.0371 6.03712 22.0371 3.88924 19.8892C1.74135 17.7413 1.74135 14.2589 3.88924 12.111L12.728 3.27216C14.2901 1.71006 16.8228 1.71006 18.3849 3.27216C19.947 4.83426 19.947 7.36692 18.3849 8.92901L9.89964 17.4143C8.92333 18.3906 7.34042 18.3906 6.36411 17.4143C5.3878 16.438 5.3878 14.8551 6.36411 13.8788L14.8493 5.39348L16.2636 6.80769L7.77832 15.293C7.58306 15.4883 7.58306 15.8048 7.77832 16.0001C7.97359 16.1954 8.29017 16.1954 8.48543 16.0001L16.9707 7.5148C17.7517 6.73375 17.7517 5.46742 16.9707 4.68637C16.1896 3.90532 14.9233 3.90532 14.1422 4.68637L5.30345 13.5252Z" fill="#666666"/>
</svg>
