<svg width="24" height="24" viewBox="0 0 24 24" fill="none" xmlns="http://www.w3.org/2000/svg">
<path fill-rule="evenodd" clip-rule="evenodd" d="M5.3033 13.5251C3.93647 14.892 3.93647 17.108 5.3033 18.4749C6.67014 19.8417 8.88621 19.8417 10.253 18.4749L19.0919 9.63604L20.5061 11.0503L11.6673 19.8891C9.51938 22.037 6.03697 22.037 3.88909 19.8891C1.7412 17.7412 1.7412 14.2588 3.88909 12.1109L12.7279 3.27208C14.29 1.70998 16.8227 1.70998 18.3848 3.27208C19.9469 4.83418 19.9469 7.36684 18.3848 8.92893L9.89949 17.4142C8.92318 18.3905 7.34027 18.3905 6.36396 17.4142C5.38765 16.4379 5.38765 14.855 6.36396 13.8787L14.8492 5.3934L16.2635 6.80761L7.77817 15.2929C7.58291 15.4882 7.58291 15.8047 7.77817 16C7.97344 16.1953 8.29002 16.1953 8.48528 16L16.9706 7.51472C17.7516 6.73367 17.7516 5.46734 16.9706 4.68629C16.1895 3.90524 14.9232 3.90524 14.1421 4.68629L5.3033 13.5251Z" fill="#666666"/>
</svg>
