<svg width="24" height="24" viewBox="0 0 24 24" fill="none" xmlns="http://www.w3.org/2000/svg">
<path d="M20.8505 3.18824C20.4785 2.81182 20.0355 2.51296 19.5471 2.309C19.0588 2.10503 18.5348 2 18.0055 2C17.4763 2 16.9523 2.10503 16.464 2.309C15.9756 2.51296 15.5326 2.81182 15.1605 3.18824L3.75054 14.5982C3.63258 14.7317 3.544 14.8884 3.49054 15.0582L2.03054 20.7682C1.98821 20.9356 1.98991 21.111 2.03547 21.2775C2.08103 21.4439 2.1689 21.5958 2.29054 21.7182C2.41299 21.8399 2.56484 21.9278 2.73131 21.9733C2.89778 22.0189 3.07322 22.0206 3.24054 21.9782L8.94054 20.5482C9.11041 20.4948 9.26713 20.4062 9.40054 20.2882L20.8505 8.87824C21.227 8.50622 21.5258 8.06319 21.7298 7.57483C21.9338 7.08647 22.0388 6.56249 22.0388 6.03324C22.0388 5.504 21.9338 4.98002 21.7298 4.49166C21.5258 4.0033 21.227 3.56027 20.8505 3.18824ZM14.4405 6.73824L17.3005 9.59824L8.74054 18.1682L5.87054 15.3082L14.4405 6.73824ZM4.44054 19.6382L5.03054 17.2582L6.78054 19.0082L4.44054 19.6382ZM19.4405 4.63824C19.8063 5.02454 20.0101 5.53628 20.0101 6.06824C20.0101 6.6002 19.8063 7.11194 19.4405 7.49824L18.7205 8.21824L15.8505 5.31824L16.5705 4.59824C16.9562 4.22731 17.4705 4.02011 18.0055 4.02011C18.5406 4.02011 19.0549 4.22731 19.4405 4.59824V4.63824Z" fill="#666666"/>
</svg>
