<svg width="24" height="24" viewBox="0 0 24 24" fill="none" xmlns="http://www.w3.org/2000/svg">
<g clip-path="url(#clip0)">
<path d="M4.71 9.29002C4.85045 9.42963 4.94628 9.6078 4.98535 9.80195C5.02442 9.99609 5.00496 10.1974 4.92945 10.3805C4.85394 10.5636 4.72577 10.7201 4.56119 10.8302C4.39661 10.9404 4.20303 10.9992 4.005 10.9992C3.80697 10.9992 3.61339 10.9404 3.44881 10.8302C3.28423 10.7201 3.15606 10.5636 3.08055 10.3805C3.00504 10.1974 2.98558 9.99609 3.02465 9.80195C3.06372 9.6078 3.15955 9.42963 3.3 9.29002C3.48736 9.10377 3.74081 8.99922 4.005 8.99922C4.26919 8.99922 4.52264 9.10377 4.71 9.29002ZM3 13C3 12.7348 3.10536 12.4804 3.29289 12.2929C3.48043 12.1053 3.73478 12 4 12H10V14H5V18H10V20H4C3.73478 20 3.48043 19.8946 3.29289 19.7071C3.10536 19.5196 3 19.2652 3 19V16H2C1.46957 16 0.960859 15.7893 0.585786 15.4142C0.210714 15.0391 0 14.5304 0 14V8.00002C0 7.46958 0.210714 6.96088 0.585786 6.5858C0.960859 6.21073 1.46957 6.00002 2 6.00002H18C18.5304 6.00002 19.0391 6.21073 19.4142 6.5858C19.7893 6.96088 20 7.46958 20 8.00002V10H18V8.00002H2V14H3V13ZM5 2.00002V5.00002H3V1.00002C3 0.7348 3.10536 0.480447 3.29289 0.29291C3.48043 0.105374 3.73478 1.67142e-05 4 1.67142e-05H14C14.1316 -0.000744178 14.2621 0.0244809 14.3839 0.0742455C14.5057 0.124011 14.6166 0.197336 14.71 0.290017L16.71 2.29002C16.8027 2.38346 16.876 2.49427 16.9258 2.61611C16.9755 2.73795 17.0008 2.86841 17 3.00002V5.00002H15V3.41002L13.59 2.00002H5ZM23.41 22L22 23.41L18.75 20.16C17.7165 20.844 16.4658 21.1198 15.2405 20.9339C14.0152 20.748 12.9026 20.1137 12.1184 19.1539C11.3343 18.1942 10.9346 16.9774 10.9968 15.7396C11.0589 14.5018 11.5786 13.3313 12.4549 12.4549C13.3313 11.5786 14.5019 11.0589 15.7396 10.9968C16.9774 10.9346 18.1942 11.3343 19.1539 12.1184C20.1137 12.9026 20.748 14.0152 20.9339 15.2405C21.1198 16.4658 20.844 17.7165 20.16 18.75L23.41 22ZM13 16C13 16.5933 13.1759 17.1733 13.5056 17.6667C13.8352 18.16 14.3038 18.5446 14.8519 18.7716C15.4001 18.9987 16.0033 19.0581 16.5853 18.9423C17.1672 18.8266 17.7018 18.5409 18.1213 18.1213C18.5409 17.7017 18.8266 17.1672 18.9424 16.5853C19.0581 16.0033 18.9987 15.4001 18.7716 14.8519C18.5446 14.3038 18.1601 13.8352 17.6667 13.5056C17.1734 13.1759 16.5933 13 16 13C15.2044 13 14.4413 13.3161 13.8787 13.8787C13.3161 14.4413 13 15.2043 13 16Z" fill="#666666"/>
</g>
<defs>
<clipPath id="clip0">
<rect width="24" height="24" fill="white"/>
</clipPath>
</defs>
</svg>
