<svg width="24" height="24" viewBox="0 0 24 24" fill="none" xmlns="http://www.w3.org/2000/svg">
<path d="M12 22C10.0222 22 8.08879 21.4135 6.4443 20.3147C4.79981 19.2159 3.51809 17.6541 2.76121 15.8268C2.00433 13.9996 1.8063 11.9889 2.19215 10.0491C2.578 8.10929 3.53041 6.32746 4.92894 4.92894C6.32746 3.53041 8.10929 2.578 10.0491 2.19215C11.9889 1.8063 13.9996 2.00433 15.8268 2.76121C17.6541 3.51809 19.2159 4.79981 20.3147 6.4443C21.4135 8.08879 22 10.0222 22 12C22 14.6522 20.9464 17.1957 19.0711 19.0711C17.1957 20.9464 14.6522 22 12 22ZM12 4C10.4178 4 8.87104 4.4692 7.55544 5.34825C6.23985 6.2273 5.21447 7.47673 4.60897 8.93854C4.00347 10.4003 3.84504 12.0089 4.15372 13.5607C4.4624 15.1126 5.22433 16.538 6.34315 17.6569C7.46197 18.7757 8.88743 19.5376 10.4393 19.8463C11.9911 20.155 13.5997 19.9965 15.0615 19.391C16.5233 18.7855 17.7727 17.7602 18.6518 16.4446C19.5308 15.129 20 13.5823 20 12C20 9.87827 19.1572 7.84344 17.6569 6.34315C16.1566 4.84286 14.1217 4 12 4ZM13 15H11V12H12C12.3956 12 12.7822 11.8827 13.1111 11.6629C13.44 11.4432 13.6964 11.1308 13.8478 10.7654C13.9991 10.3999 14.0387 9.99779 13.9616 9.60982C13.8844 9.22186 13.6939 8.8655 13.4142 8.58579C13.1345 8.30609 12.7781 8.1156 12.3902 8.03843C12.0022 7.96126 11.6001 8.00087 11.2346 8.15225C10.8692 8.30362 10.5568 8.55997 10.3371 8.88886C10.1173 9.21776 10 9.60444 10 10H8C8.00132 9.25217 8.21225 8.51968 8.60885 7.88567C9.00546 7.25167 9.57185 6.74154 10.2438 6.41319C10.9157 6.08485 11.6661 5.95143 12.41 6.02809C13.1539 6.10476 13.8614 6.38842 14.4523 6.84689C15.0431 7.30537 15.4935 7.92028 15.7525 8.62185C16.0115 9.32341 16.0686 10.0835 15.9174 10.8159C15.7661 11.5483 15.4126 12.2236 14.8969 12.7652C14.3813 13.3068 13.7241 13.693 13 13.88V15ZM12 18.25C11.7528 18.25 11.5111 18.1767 11.3055 18.0393C11.1 17.902 10.9398 17.7068 10.8452 17.4784C10.7505 17.25 10.7258 16.9986 10.774 16.7561C10.8223 16.5137 10.9413 16.2909 11.1161 16.1161C11.2909 15.9413 11.5137 15.8223 11.7561 15.774C11.9986 15.7258 12.25 15.7505 12.4784 15.8452C12.7068 15.9398 12.902 16.1 13.0393 16.3055C13.1767 16.5111 13.25 16.7528 13.25 17C13.25 17.3315 13.1183 17.6495 12.8839 17.8839C12.6495 18.1183 12.3315 18.25 12 18.25Z" fill="#666666"/>
</svg>
