<svg width="24" height="24" viewBox="0 0 24 24" fill="none" xmlns="http://www.w3.org/2000/svg">
<path fill-rule="evenodd" clip-rule="evenodd" d="M6.27797 9.15405C6.30642 9.09364 6.33476 9.03334 6.36295 8.97335L6.36298 8.97328C6.50302 8.67532 6.6395 8.38494 6.76732 8.1267C7.10037 7.45386 7.44514 6.84263 7.86672 6.3211C8.67001 5.32737 9.79998 4.59281 11.8603 4.59281C16.0116 4.59281 19.4072 8.0396 19.4072 12.3293C19.4072 16.619 16.0116 20.0658 11.8603 20.0658V21.6586C16.9248 21.6586 21 17.4648 21 12.3293C21 7.19384 16.9248 3 11.8603 3C9.31279 3 7.72981 3.95677 6.62801 5.31978C6.09705 5.97661 5.69126 6.7101 5.33982 7.4201C5.17398 7.75513 5.03063 8.06153 4.89215 8.35751L4.89214 8.35752C4.87061 8.40354 4.8492 8.44931 4.82783 8.49489L2 7.20951L3.51696 13.4153L8.82633 10.3124L6.27797 9.15405Z" fill="#666666"/>
</svg>
