<svg width="24" height="24" viewBox="0 0 24 24" fill="none" xmlns="http://www.w3.org/2000/svg">
<path d="M21.7002 20.3002L16.3002 14.9002C17.4035 13.5055 18.0027 11.7786 18.0002 10.0002C17.9943 7.87528 17.1707 5.83416 15.7002 4.30021C14.1698 2.82397 12.1265 1.99902 10.0002 1.99902C7.8739 1.99902 5.83053 2.82397 4.3002 4.30021C2.82396 5.83053 1.99902 7.8739 1.99902 10.0002C1.99902 12.1265 2.82396 14.1699 4.3002 15.7002C5.83416 17.1707 7.87528 17.9943 10.0002 18.0002C11.7785 18.0027 13.5055 17.4036 14.9002 16.3002L20.3002 21.7002L21.7002 20.3002ZM10.0002 16.0002C9.21293 16.0123 8.43196 15.8582 7.70826 15.5481C6.98456 15.2379 6.33439 14.7786 5.8002 14.2002C5.22177 13.666 4.76249 13.0159 4.45233 12.2922C4.14217 11.5685 3.98811 10.7875 4.0002 10.0002C3.98811 9.21294 4.14217 8.43196 4.45233 7.70826C4.76249 6.98456 5.22177 6.3344 5.8002 5.80021C6.33439 5.22178 6.98456 4.76249 7.70826 4.45234C8.43196 4.14218 9.21293 3.98812 10.0002 4.00021C10.7874 3.98812 11.5684 4.14218 12.2921 4.45234C13.0158 4.76249 13.666 5.22178 14.2002 5.80021C14.7786 6.3344 15.2379 6.98456 15.548 7.70826C15.8582 8.43196 16.0123 9.21294 16.0002 10.0002C16.0123 10.7875 15.8582 11.5685 15.548 12.2922C15.2379 13.0159 14.7786 13.666 14.2002 14.2002C13.666 14.7786 13.0158 15.2379 12.2921 15.5481C11.5684 15.8582 10.7874 16.0123 10.0002 16.0002Z" fill="#666666"/>
</svg>
