<svg width="24" height="24" viewBox="0 0 24 24" fill="none" xmlns="http://www.w3.org/2000/svg">
<path d="M21.7 20.3002L16.3 14.9002C17.4033 13.5055 18.0025 11.7786 18 10.0002C17.9941 7.87528 17.1705 5.83416 15.7 4.30021C14.1696 2.82397 12.1263 1.99902 9.99996 1.99902C7.87366 1.99902 5.83029 2.82397 4.29996 4.30021C2.82372 5.83053 1.99878 7.8739 1.99878 10.0002C1.99878 12.1265 2.82372 14.1699 4.29996 15.7002C5.83392 17.1707 7.87504 17.9943 9.99996 18.0002C11.7783 18.0027 13.5053 17.4036 14.9 16.3002L20.3 21.7002L21.7 20.3002ZM9.99996 16.0002C9.21269 16.0123 8.43172 15.8582 7.70802 15.5481C6.98432 15.2379 6.33415 14.7786 5.79996 14.2002C5.22153 13.666 4.76225 13.0159 4.45209 12.2922C4.14193 11.5685 3.98787 10.7875 3.99996 10.0002C3.98787 9.21294 4.14193 8.43196 4.45209 7.70826C4.76225 6.98456 5.22153 6.3344 5.79996 5.80021C6.33415 5.22178 6.98432 4.76249 7.70802 4.45234C8.43172 4.14218 9.21269 3.98812 9.99996 4.00021C10.7872 3.98812 11.5682 4.14218 12.2919 4.45234C13.0156 4.76249 13.6658 5.22178 14.2 5.80021C14.7784 6.3344 15.2377 6.98456 15.5478 7.70826C15.858 8.43196 16.0121 9.21294 16 10.0002C16.0121 10.7875 15.858 11.5685 15.5478 12.2922C15.2377 13.0159 14.7784 13.666 14.2 14.2002C13.6658 14.7786 13.0156 15.2379 12.2919 15.5481C11.5682 15.8582 10.7872 16.0123 9.99996 16.0002Z" fill="#666666"/>
</svg>
