<svg width="24" height="24" viewBox="0 0 24 24" fill="none" xmlns="http://www.w3.org/2000/svg">
<path d="M21.7 20.3L16.3 14.9C17.4033 13.5053 18.0025 11.7783 18 9.99996C17.9941 7.87504 17.1705 5.83392 15.7 4.29996C14.1696 2.82372 12.1263 1.99878 9.99996 1.99878C7.87366 1.99878 5.83029 2.82372 4.29996 4.29996C2.82372 5.83029 1.99878 7.87366 1.99878 9.99996C1.99878 12.1263 2.82372 14.1696 4.29996 15.7C5.83392 17.1705 7.87504 17.9941 9.99996 18C11.7783 18.0025 13.5053 17.4033 14.9 16.3L20.3 21.7L21.7 20.3ZM9.99996 16C9.21269 16.0121 8.43172 15.858 7.70802 15.5478C6.98432 15.2377 6.33415 14.7784 5.79996 14.2C5.22153 13.6658 4.76225 13.0156 4.45209 12.2919C4.14193 11.5682 3.98787 10.7872 3.99996 9.99996C3.98787 9.21269 4.14193 8.43172 4.45209 7.70802C4.76225 6.98432 5.22153 6.33415 5.79996 5.79996C6.33415 5.22153 6.98432 4.76225 7.70802 4.45209C8.43172 4.14193 9.21269 3.98787 9.99996 3.99996C10.7872 3.98787 11.5682 4.14193 12.2919 4.45209C13.0156 4.76225 13.6658 5.22153 14.2 5.79996C14.7784 6.33415 15.2377 6.98432 15.5478 7.70802C15.858 8.43172 16.0121 9.21269 16 9.99996C16.0121 10.7872 15.858 11.5682 15.5478 12.2919C15.2377 13.0156 14.7784 13.6658 14.2 14.2C13.6658 14.7784 13.0156 15.2377 12.2919 15.5478C11.5682 15.858 10.7872 16.0121 9.99996 16Z" fill="#666666"/>
</svg>
