<svg width="24" height="24" viewBox="0 0 24 24" fill="none" xmlns="http://www.w3.org/2000/svg">
<path fill-rule="evenodd" clip-rule="evenodd" d="M8.51929 2.28463C8.62008 1.52477 9.27555 1 10.0001 1H14.0001C14.7247 1 15.3801 1.52478 15.4809 2.28465L15.7823 4.38618C16.1001 4.54438 16.4046 4.72207 16.6967 4.91751L18.6928 4.11587L18.7084 4.11021C19.3337 3.88282 20.1436 4.08487 20.5305 4.77755L22.5321 8.24028L22.538 8.25114C22.8771 8.87291 22.7552 9.68479 22.1597 10.1549L22.1561 10.1577L20.4803 11.4682C20.4926 11.6389 20.5001 11.8159 20.5001 12C20.5001 12.1841 20.4926 12.3611 20.4803 12.5318L22.1597 13.8451C22.7552 14.3152 22.8771 15.1271 22.538 15.7489L22.5321 15.7597L20.5305 19.2225C20.1602 19.8853 19.3685 20.1484 18.6857 19.8812L18.6774 19.878L16.6927 19.0809C16.4043 19.2729 16.1013 19.452 15.7825 19.6122L15.4809 21.7154C15.3801 22.4752 14.7247 23 14.0001 23H10.0001C9.27555 23 8.62009 22.4752 8.51929 21.7154L8.21793 19.6138C7.90009 19.4556 7.59563 19.2779 7.30349 19.0825L5.30741 19.8841L5.29185 19.8898C4.66651 20.1172 3.85653 19.9151 3.46969 19.2224L1.46814 15.7597L1.46221 15.7489C1.12307 15.1271 1.245 14.3152 1.84046 13.8451L1.84409 13.8423L3.52017 12.5316C3.50772 12.3586 3.5001 12.1807 3.5001 12C3.5001 11.8193 3.50772 11.6414 3.52017 11.4684L1.8441 10.1577L1.84046 10.1549C1.27437 9.70797 1.08583 8.89283 1.47612 8.22646L3.46972 4.77753C3.84002 4.11469 4.63174 3.85159 5.3145 4.11876L5.32279 4.122L7.30751 4.91912C7.59589 4.72714 7.89893 4.54798 8.2177 4.38779L8.51929 2.28463ZM10.4372 3L10.0388 5.77832L9.50933 5.99531C8.99477 6.20619 8.5084 6.49877 8.0401 6.85L7.58978 7.18774L4.99012 6.1437L3.42351 8.85393L5.6327 10.5815L5.56238 11.144C5.52494 11.4436 5.5001 11.7281 5.5001 12C5.5001 12.2719 5.52494 12.5564 5.56238 12.856L5.6327 13.4185L3.42351 15.1461L4.99012 17.8563L7.59726 16.8093L8.04981 17.1574C8.50458 17.5072 8.98773 17.7909 9.50933 18.0047L10.0388 18.2217L10.4372 21H13.563L13.9614 18.2217L14.4909 18.0047C15.0054 17.7938 15.4918 17.5012 15.9601 17.15L16.4104 16.8123L19.0101 17.8563L20.5767 15.1461L18.3675 13.4185L18.4378 12.856C18.4754 12.5555 18.5001 12.2813 18.5001 12C18.5001 11.7187 18.4754 11.4445 18.4378 11.144L18.3675 10.5815L20.5767 8.85392L19.0101 6.1437L16.4029 7.19074L15.9504 6.84262C15.4956 6.49281 15.0125 6.20907 14.4909 5.99531L13.9614 5.77832L13.563 3H10.4372ZM12.0001 9.5C10.6224 9.5 9.5001 10.6223 9.5001 12C9.5001 13.3777 10.6224 14.5 12.0001 14.5C13.3778 14.5 14.5001 13.3777 14.5001 12C14.5001 10.6223 13.3778 9.5 12.0001 9.5ZM7.5001 12C7.5001 9.51772 9.51782 7.5 12.0001 7.5C14.4824 7.5 16.5001 9.51772 16.5001 12C16.5001 14.4823 14.4824 16.5 12.0001 16.5C9.51782 16.5 7.5001 14.4823 7.5001 12Z" fill="#666666"/>
</svg>
