<svg width="24" height="24" viewBox="0 0 24 24" fill="none" xmlns="http://www.w3.org/2000/svg">
<path d="M8.51953 2.28463C8.62032 1.52477 9.27579 1 10.0003 1H14.0003C14.7249 1 15.3803 1.52478 15.4811 2.28465L15.7825 4.38618C16.1003 4.54438 16.4048 4.72207 16.6969 4.91751L18.693 4.11587L18.7086 4.11021C19.3339 3.88282 20.1438 4.08487 20.5307 4.77755L22.5323 8.24028L22.5382 8.25114C22.8773 8.87291 22.7554 9.68479 22.1599 10.1549L22.1563 10.1577L20.4805 11.4682C20.4928 11.6389 20.5003 11.8159 20.5003 12C20.5003 12.1841 20.4928 12.3611 20.4805 12.5318L22.1599 13.8451C22.7554 14.3152 22.8773 15.1271 22.5382 15.7489L22.5323 15.7597L20.5307 19.2225C20.1604 19.8853 19.3687 20.1484 18.6859 19.8812L18.6776 19.878L16.6929 19.0809C16.4045 19.2729 16.1015 19.452 15.7827 19.6122L15.4811 21.7154C15.3803 22.4752 14.7249 23 14.0003 23H10.0003C9.27579 23 8.62033 22.4752 8.51953 21.7154L8.21817 19.6138C7.90033 19.4556 7.59587 19.2779 7.30373 19.0825L5.30765 19.8841L5.29209 19.8898C4.66675 20.1172 3.85677 19.9151 3.46993 19.2224L1.46838 15.7597L1.46245 15.7489C1.12331 15.1271 1.24524 14.3152 1.8407 13.8451L1.84433 13.8423L3.52041 12.5316C3.50796 12.3586 3.50034 12.1807 3.50034 12C3.50034 11.8193 3.50796 11.6414 3.52041 11.4684L1.84434 10.1577L1.8407 10.1549C1.27461 9.70797 1.08607 8.89283 1.47636 8.22646L3.46996 4.77753C3.84026 4.11469 4.63198 3.85159 5.31474 4.11876L5.32303 4.122L7.30775 4.91912C7.59613 4.72714 7.89917 4.54798 8.21794 4.38779L8.51953 2.28463ZM10.4374 3L10.039 5.77832L9.50957 5.99531C8.99501 6.20619 8.50864 6.49877 8.04034 6.85L7.59002 7.18774L4.99036 6.1437L3.42375 8.85393L5.63294 10.5815L5.56262 11.144C5.52518 11.4436 5.50034 11.7281 5.50034 12C5.50034 12.2719 5.52518 12.5564 5.56262 12.856L5.63294 13.4185L3.42375 15.1461L4.99036 17.8563L7.5975 16.8093L8.05005 17.1574C8.50482 17.5072 8.98797 17.7909 9.50957 18.0047L10.039 18.2217L10.4374 21H13.5632L13.9616 18.2217L14.4911 18.0047C15.0056 17.7938 15.492 17.5012 15.9603 17.15L16.4106 16.8123L19.0103 17.8563L20.5769 15.1461L18.3677 13.4185L18.438 12.856C18.4756 12.5555 18.5003 12.2813 18.5003 12C18.5003 11.7187 18.4756 11.4445 18.438 11.144L18.3677 10.5815L20.5769 8.85392L19.0103 6.1437L16.4031 7.19074L15.9506 6.84262C15.4958 6.49281 15.0127 6.20907 14.4911 5.99531L13.9616 5.77832L13.5632 3H10.4374ZM12.0003 9.5C10.6226 9.5 9.50034 10.6223 9.50034 12C9.50034 13.3777 10.6226 14.5 12.0003 14.5C13.378 14.5 14.5003 13.3777 14.5003 12C14.5003 10.6223 13.378 9.5 12.0003 9.5ZM7.50034 12C7.50034 9.51772 9.51806 7.5 12.0003 7.5C14.4826 7.5 16.5003 9.51772 16.5003 12C16.5003 14.4823 14.4826 16.5 12.0003 16.5C9.51806 16.5 7.50034 14.4823 7.50034 12Z" fill="#666666"/>
</svg>
