<svg width="24" height="24" viewBox="0 0 24 24" fill="none" xmlns="http://www.w3.org/2000/svg">
<path d="M6.35 6.35001L9 9.00001H3V3.00001L4.94 4.94001C6.33843 3.54593 8.11828 2.59707 10.0552 2.21304C11.9921 1.82901 13.9993 2.02701 15.8239 2.78206C17.6484 3.53712 19.2086 4.81544 20.3077 6.45587C21.4068 8.0963 21.9956 10.0254 22 12H20C19.9973 10.4197 19.5266 8.87569 18.6474 7.56261C17.7682 6.24953 16.5197 5.22626 15.0596 4.62189C13.5995 4.01752 11.9931 3.85911 10.443 4.16667C8.893 4.47422 7.46876 5.23394 6.35 6.35001V6.35001ZM17.65 17.65L15 15H21V21L19.06 19.06C17.6616 20.4541 15.8817 21.4029 13.9448 21.787C12.0079 22.171 10.0007 21.973 8.17614 21.2179C6.3516 20.4629 4.79143 19.1846 3.69232 17.5441C2.59322 15.9037 2.00436 13.9746 2 12H4C4.0027 13.5803 4.47336 15.1243 5.35259 16.4374C6.23183 17.7505 7.48025 18.7737 8.94038 19.3781C10.4005 19.9825 12.0069 20.1409 13.557 19.8333C15.107 19.5258 16.5312 18.7661 17.65 17.65Z" fill="#666666"/>
</svg>
