<svg width="24" height="24" viewBox="0 0 24 24" fill="none" xmlns="http://www.w3.org/2000/svg">
<path d="M6.35 6.34989L9 8.99989H3V2.99989L4.94 4.93989C6.33843 3.54581 8.11828 2.59695 10.0552 2.21292C11.9921 1.82889 13.9993 2.02689 15.8239 2.78194C17.6484 3.537 19.2086 4.81532 20.3077 6.45575C21.4068 8.09618 21.9956 10.0253 22 11.9999H20C19.9973 10.4196 19.5266 8.87557 18.6474 7.56249C17.7682 6.24941 16.5197 5.22614 15.0596 4.62177C13.5995 4.0174 11.9931 3.85899 10.443 4.16655C8.893 4.4741 7.46876 5.23382 6.35 6.34989ZM17.65 17.6499L15 14.9999H21V20.9999L19.06 19.0599C17.6616 20.454 15.8817 21.4028 13.9448 21.7869C12.0079 22.1709 10.0007 21.9729 8.17614 21.2178C6.3516 20.4628 4.79143 19.1845 3.69232 17.544C2.59322 15.9036 2.00436 13.9745 2 11.9999H4C4.0027 13.5802 4.47336 15.1242 5.35259 16.4373C6.23183 17.7504 7.48025 18.7736 8.94038 19.378C10.4005 19.9824 12.0069 20.1408 13.557 19.8332C15.107 19.5257 16.5312 18.766 17.65 17.6499Z" fill="#666666"/>
</svg>
