<svg width="24" height="24" viewBox="0 0 24 24" fill="none" xmlns="http://www.w3.org/2000/svg">
<path d="M16 8C16 10.2091 14.2091 12 12 12C9.79086 12 8 10.2091 8 8C8 5.79086 9.79086 4 12 4C14.2091 4 16 5.79086 16 8ZM15.7142 12.7125C17.1064 11.6137 18 9.91121 18 8C18 4.68629 15.3137 2 12 2C8.68629 2 6 4.68629 6 8C6 9.91121 6.8936 11.6137 8.28579 12.7125C5.20131 13.9471 2.87522 16.6738 2.20004 20C2.06886 20.6462 2 21.3151 2 22H4H20H22C22 21.3151 21.9311 20.6462 21.8 20C21.1248 16.6738 18.7987 13.9471 15.7142 12.7125ZM12 14C15.7277 14 18.8599 16.5495 19.748 20H4.25203C5.14012 16.5495 8.27232 14 12 14Z" fill="#666666"/>
</svg>
