<svg width="18" height="18" viewBox="0 0 18 18" fill="none" xmlns="http://www.w3.org/2000/svg">
<path d="M11.0001 9C11.0001 10.1046 10.1047 11 9.00012 11C7.89555 11 7.00012 10.1046 7.00012 9C7.00012 7.89543 7.89555 7 9.00012 7C10.1047 7 11.0001 7.89543 11.0001 9Z" fill="#666666"/>
<path fill-rule="evenodd" clip-rule="evenodd" d="M3.33583 9C3.66225 9.34098 4.11744 9.7789 4.66999 10.2151C5.86841 11.1612 7.3991 12 9.00012 12C10.6011 12 12.1318 11.1612 13.3302 10.2151C13.8828 9.7789 14.338 9.34098 14.6644 9C14.338 8.65902 13.8828 8.2211 13.3302 7.7849C12.1318 6.83884 10.6011 6 9.00012 6C7.3991 6 5.86841 6.83884 4.66999 7.7849C4.11744 8.2211 3.66225 8.65902 3.33583 9ZM16.0001 9C16.7873 8.38326 16.7869 8.38275 16.7869 8.38275L16.7853 8.38068L16.7821 8.37664L16.7722 8.36426C16.7641 8.35414 16.753 8.3403 16.7389 8.32298C16.7106 8.28837 16.6704 8.23983 16.6189 8.17936C16.5159 8.0585 16.367 7.88947 16.177 7.68832C15.7981 7.28721 15.2498 6.75212 14.5695 6.2151C13.2344 5.16116 11.2651 4 9.00012 4C6.73515 4 4.76583 5.16116 3.43075 6.2151C2.75048 6.75212 2.20214 7.28721 1.82325 7.68832C1.63325 7.88947 1.48439 8.0585 1.38135 8.17936C1.32979 8.23983 1.28961 8.28837 1.26137 8.32298C1.24725 8.3403 1.2361 8.35414 1.22801 8.36426L1.21817 8.37664L1.21498 8.38068L1.21382 8.38215C1.21382 8.38215 1.21296 8.38326 2.00012 9L1.21296 8.38326L0.729736 9L1.21296 9.61674L2.00012 9C1.21296 9.61674 1.21296 9.61674 1.21296 9.61674L1.21498 9.61932L1.21817 9.62336L1.22801 9.63574C1.2361 9.64586 1.24725 9.6597 1.26137 9.67702C1.28961 9.71163 1.32979 9.76017 1.38135 9.82064C1.48439 9.9415 1.63325 10.1105 1.82325 10.3117C2.20214 10.7128 2.75048 11.2479 3.43075 11.7849C4.76583 12.8388 6.73515 14 9.00012 14C11.2651 14 13.2344 12.8388 14.5695 11.7849C15.2498 11.2479 15.7981 10.7128 16.177 10.3117C16.367 10.1105 16.5159 9.9415 16.6189 9.82064C16.6704 9.76017 16.7106 9.71163 16.7389 9.67702C16.753 9.6597 16.7641 9.64586 16.7722 9.63574L16.7821 9.62336L16.7853 9.61932L16.7864 9.61785C16.7864 9.61785 16.7873 9.61674 16.0001 9ZM16.0001 9L16.7873 9.61674L17.2705 9L16.7869 8.38275L16.0001 9Z" fill="#666666"/>
</svg>
