<svg width="18" height="18" viewBox="0 0 18 18" fill="none" xmlns="http://www.w3.org/2000/svg">
<path d="M10.9999 9C10.9999 10.1046 10.1045 11 8.99988 11C7.89531 11 6.99988 10.1046 6.99988 9C6.99988 7.89543 7.89531 7 8.99988 7C10.1045 7 10.9999 7.89543 10.9999 9Z" fill="#666666"/>
<path d="M3.33559 9C3.66201 8.65902 4.1172 8.2211 4.66975 7.7849C5.86817 6.83884 7.39886 6 8.99988 6C10.6009 6 12.1316 6.83884 13.33 7.7849C13.8826 8.2211 14.3378 8.65902 14.6642 9C14.3378 9.34098 13.8826 9.7789 13.33 10.2151C12.1316 11.1612 10.6009 12 8.99988 12C7.39886 12 5.86817 11.1612 4.66975 10.2151C4.1172 9.7789 3.66201 9.34098 3.33559 9ZM15.9999 9C16.7871 8.38326 16.7867 8.38275 16.7867 8.38275L16.7851 8.38068L16.7819 8.37664L16.772 8.36426C16.7639 8.35414 16.7528 8.3403 16.7387 8.32298C16.7104 8.28837 16.6702 8.23983 16.6187 8.17936C16.5157 8.0585 16.3668 7.88947 16.1768 7.68832C15.7979 7.28721 15.2496 6.75212 14.5693 6.2151C13.2342 5.16116 11.2649 4 8.99988 4C6.73491 4 4.76559 5.16116 3.43051 6.2151C2.75024 6.75212 2.2019 7.28721 1.82301 7.68832C1.63301 7.88947 1.48415 8.0585 1.38111 8.17936C1.32955 8.23983 1.28937 8.28837 1.26113 8.32298C1.24701 8.3403 1.23586 8.35414 1.22777 8.36426L1.21793 8.37664L1.21358 8.38215C1.21358 8.38215 1.21272 8.38326 1.99988 9L1.21272 8.38326L0.729492 9L1.21272 9.61674L1.99988 9C1.21272 9.61674 1.21272 9.61674 1.21272 9.61674L1.21474 9.61932L1.21793 9.62336L1.22777 9.63574C1.23586 9.64586 1.24701 9.6597 1.26113 9.67702C1.28937 9.71163 1.32955 9.76017 1.38111 9.82064C1.48415 9.9415 1.63301 10.1105 1.82301 10.3117C2.2019 10.7128 2.75024 11.2479 3.43051 11.7849C4.76559 12.8388 6.73491 14 8.99988 14C11.2649 14 13.2342 12.8388 14.5693 11.7849C15.2496 11.2479 15.7979 10.7128 16.1768 10.3117C16.3668 10.1105 16.5157 9.9415 16.6187 9.82064C16.6702 9.76017 16.7104 9.71163 16.7387 9.67702C16.7528 9.6597 16.7639 9.64586 16.772 9.63574L16.7819 9.62336L16.7851 9.61932L16.7862 9.61785C16.7862 9.61785 16.7871 9.61674 15.9999 9ZM15.9999 9L16.7871 9.61674L17.2703 9L16.7867 8.38275L15.9999 9Z" fill="#666666"/>
</svg>
